<?xml version="1.0" encoding="utf-8"?>
<!-- Generator: Adobe Illustrator 16.0.0, SVG Export Plug-In . SVG Version: 6.00 Build 0)  -->
<!DOCTYPE svg PUBLIC "-//W3C//DTD SVG 1.1//EN" "http://www.w3.org/Graphics/SVG/1.1/DTD/svg11.dtd">
<svg version="1.1" id="Layer_1" xmlns="http://www.w3.org/2000/svg" xmlns:xlink="http://www.w3.org/1999/xlink" x="0px" y="0px"
	 width="566.93px" height="141.73px" viewBox="0 0 566.93 141.73" enable-background="new 0 0 566.93 141.73" xml:space="preserve">
<g>
	<path fill="#DADADA" d="M71.289,97.026c0,16.522-3.246,26.402-10.177,32.596c-6.931,6.343-16.961,8.556-25.958,8.556
		c-8.554,0-17.994-2.064-23.895-5.902l3.246-9.879c4.867,2.951,12.242,5.75,21.091,5.75c13.274,0,23.008-7.077,23.008-25.072V95.11
		h-0.294c-3.982,6.637-11.798,11.947-22.713,11.947c-17.847,0-30.383-15.044-30.383-34.807c0-24.192,15.782-37.757,32.153-37.757
		c12.389,0,19.173,6.339,22.272,12.242h0.294l0.59-10.621h11.357c-0.296,5.016-0.591,10.766-0.591,19.468V97.026z M58.457,64.139
		c0-2.213-0.147-4.129-0.736-5.902c-2.361-7.521-8.703-13.718-18.29-13.718c-12.242,0-21.238,10.475-21.238,26.992
		c0,14.015,7.226,25.813,21.238,25.813c7.965,0,15.191-5.161,17.994-13.423c0.738-2.213,1.032-4.721,1.032-6.931V64.139z"/>
	<path fill="#DADADA" d="M86.834,58.236c0-8.404-0.294-15.484-0.589-22.122h11.356l0.442,14.009h0.443
		c3.392-9.585,11.357-15.63,19.911-15.63c1.474,0,2.508,0,3.54,0.291v12.242c-1.181-0.291-2.508-0.44-4.278-0.44
		c-9.292,0-15.633,6.932-17.403,16.666c-0.443,1.77-0.59,3.983-0.59,5.902v38.198H86.834V58.236z"/>
	<path fill="#DADADA" d="M198.188,71.659c0,26.399-19.322,37.317-35.84,37.317c-18.731,0-33.923-14.015-33.923-37.023
		c0-23.895,16.224-37.46,35.546-37.46C183.882,34.494,198.188,48.8,198.188,71.659z M141.552,71.954
		c0,14.306,7.226,27.286,21.681,27.286c14.159,0,21.828-12.979,21.828-27.432c0-12.391-5.752-27.729-21.828-27.729
		C147.304,44.079,141.552,59.269,141.552,71.954z"/>
	<path fill="#DADADA" d="M260.129,107.353l-0.738-11.65h-0.294c-3.243,5.453-10.472,13.274-23.746,13.274
		c-13.866,0-24.483-8.41-24.483-31.27V36.115h12.979v39.379c0,13.862,4.424,22.862,15.633,22.862
		c9.439,0,15.487-6.492,17.406-11.799c0.735-2.064,1.178-4.572,1.178-6.786V36.115h12.831v51.766c0,7.523,0.298,13.718,0.589,19.472
		H260.129z"/>
	<path fill="#009FE3" d="M291.389,9.269c6.935-1.178,16.96-2.064,30.383-2.064c13.866,0,23.746,2.657,30.383,7.967
		c6.343,5.016,10.621,13.274,10.621,23.008c0,9.88-3.246,18.141-9.146,23.597c-7.669,7.226-19.024,10.62-32.152,10.62
		c-3.098,0-5.751-0.294-7.815-0.443v35.399h-22.273V9.269z M313.662,54.55c1.621,0.294,4.274,0.443,7.521,0.443
		c11.947,0,19.322-6.048,19.322-16.077c0-9.293-6.197-14.75-17.847-14.75c-4.427,0-7.375,0.44-8.996,0.738V54.55z"/>
	<path fill="#009FE3" d="M398.167,15.171c0,6.194-4.718,11.209-12.093,11.209c-7.08,0-11.802-5.016-11.652-11.209
		c-0.149-6.491,4.572-11.358,11.798-11.358C393.449,3.813,398.019,8.68,398.167,15.171z M375.011,107.353V35.228h22.419v72.125
		H375.011z"/>
	<path fill="#009FE3" d="M412.173,58.236c0-8.996-0.295-16.666-0.589-23.008h19.468l1.032,9.883h0.443
		c2.951-4.572,10.326-11.504,22.27-11.504c14.75,0,25.813,9.734,25.813,30.975v42.771h-22.419V67.381
		c0-9.291-3.245-15.633-11.357-15.633c-6.194,0-9.883,4.278-11.355,8.407c-0.593,1.476-0.887,3.541-0.887,5.605v41.593h-22.419
		V58.236z"/>
	<path fill="#009FE3" d="M564.644,96.88c0,13.863-2.803,25.222-10.915,32.448c-7.964,6.785-18.73,8.85-29.351,8.85
		c-9.439,0-19.468-1.919-25.959-5.604l4.427-16.96c4.572,2.653,12.536,5.456,20.943,5.456c10.617,0,18.729-5.754,18.729-19.027
		v-4.719h-0.294c-4.278,6.049-11.21,9.437-19.468,9.437c-17.847,0-30.532-14.452-30.532-35.25c0-23.154,15.045-37.903,32.742-37.903
		c9.883,0,16.076,4.275,19.766,10.177h0.294l0.738-8.556h19.468c-0.295,4.573-0.589,10.621-0.589,21.387V96.88z M542.225,64.582
		c0-1.476-0.149-2.951-0.443-4.132c-1.621-5.899-5.899-9.883-12.093-9.883c-8.113,0-14.75,7.378-14.75,20.503
		c0,10.766,5.311,19.173,14.75,19.173c5.75,0,10.322-3.835,11.798-9.145c0.589-1.621,0.738-3.983,0.738-5.899V64.582z"/>
</g>
</svg>
